<?xml version="1.0" encoding="utf-8"?>
<!-- Generator: Adobe Illustrator 17.0.0, SVG Export Plug-In . SVG Version: 6.00 Build 0)  -->
<!DOCTYPE svg PUBLIC "-//W3C//DTD SVG 1.1//EN" "http://www.w3.org/Graphics/SVG/1.1/DTD/svg11.dtd">
<svg version="1.1" id="Layer_1" xmlns="http://www.w3.org/2000/svg" xmlns:xlink="http://www.w3.org/1999/xlink" x="0px" y="0px"
	 width="252px" height="252px" viewBox="0 0 252 252" enable-background="new 0 0 252 252" xml:space="preserve">
<g>
	<path fill="#530E82" d="M37.139,131.742l20.298,14.815l43.237,31.557l35.114-45.273l-60.426-13.737l-50.033-12.291
		C23.761,115.656,27.918,125.012,37.139,131.742z"/>
	<path fill="#AB1681" d="M100.674,178.114l45.072,32.897l24.782,18.088c9.281,6.774,19.533,7.856,27.498,3.57l-62.239-99.827
		L100.674,178.114z"/>
	<path fill="#52B8D5" d="M220.579,23.519c-0.455-0.395-0.886-0.815-1.377-1.173c-7.049-5.145-16.652-5.634-26.346-1.343
		l-17.49,7.741L152.46,74.62l51.556-29.747L220.579,23.519z"/>
	<path fill="#3D5CA8" d="M41.848,87.843c-5.349,2.369-9.548,5.606-12.48,9.623c-2.148,2.943-3.466,6.112-4.04,9.348l50.033,12.291
		l45.038-25.986l-4.257-38.16L41.848,87.843z"/>
	<polygon fill="#4388BD" points="116.143,54.958 120.399,93.118 152.46,74.62 175.366,28.745 	"/>
	<path fill="#F48AC2" d="M228.518,47.032c1.052-9.808-1.858-18.237-7.94-23.513l-16.562,21.354l0.317-0.183l-17.164,61.392
		l38.365-31.245L228.518,47.032z"/>
	<polygon fill="#F453A3" points="187.17,106.082 177.113,142.054 218.494,140.459 225.535,74.837 	"/>
	<path fill="#CF449E" d="M177.113,142.054l-11.016,39.405l31.93,51.21c2.844-1.53,5.404-3.727,7.514-6.618
		c2.933-4.019,4.736-9.004,5.36-14.823l7.593-70.769L177.113,142.054z"/>
</g>
</svg>
